<svg aria-hidden="true" style="position:absolute;width:0;height:0;overflow:hidden" xmlns="http://www.w3.org/2000/svg">
  <defs>
    <symbol id="icon-filled-left-arrow" viewBox="0 0 32 32">
      <path fill="#161c2a" style="fill:var(--color1, #161c2a)" d="M0 16c0 8.837 7.163 16 16 16s16-7.163 16-16S24.837 0 16 0 0 7.163 0 16z"/>
      <path fill="#fff" style="fill:var(--color2, #fff)" d="M20 22.12 13.893 16 20 9.88 18.12 8l-8 8 8 8L20 22.12z"/>
    </symbol>
    <symbol id="icon-filled-like" viewBox="0 0 32 32">
      <path d="m16 28.467-1.933-1.76C7.2 20.48 2.667 16.374 2.667 11.334c0-4.107 3.227-7.333 7.333-7.333 2.32 0 4.547 1.08 6 2.787 1.453-1.707 3.68-2.787 6-2.787 4.107 0 7.333 3.227 7.333 7.333 0 5.04-4.533 9.147-11.4 15.387L16 28.468z"/>
    </symbol>
    <symbol id="icon-location" viewBox="0 0 32 32">
      <path d="M16 2.667A9.326 9.326 0 0 0 6.667 12c0 5.56 5.893 13.227 8.32 16.147.533.64 1.507.64 2.04 0C19.44 25.227 25.334 17.56 25.334 12a9.326 9.326 0 0 0-9.333-9.333zm0 12.666a3.334 3.334 0 0 1 0-6.666 3.334 3.334 0 0 1 0 6.666z"/>
    </symbol>
    <symbol id="icon-empty-star" viewBox="0 0 32 32">
      <path d="m16 9.507 1.92 4.533 1.6.133 3.293.28-3.72 3.227.36 1.573.747 3.213-2.827-1.707L16 19.906l-1.373.827L11.8 22.44l.747-3.213.36-1.573-3.72-3.227 4.893-.413.627-1.48L16 9.507zm0-6.84-3.747 8.84-9.587.813 7.28 6.307L7.759 28l8.24-4.973L24.239 28l-2.187-9.373 7.28-6.307-9.587-.813-3.747-8.84z"/>
    </symbol>
    <symbol id="icon-search" viewBox="0 0 32 32">
      <path d="M20.667 18.667h-1.053l-.373-.36a8.626 8.626 0 0 0 2.093-5.64C21.334 7.88 17.454 4 12.667 4S4 7.88 4 12.667a8.667 8.667 0 0 0 8.667 8.667 8.63 8.63 0 0 0 5.64-2.093l.36.373v1.053l6.667 6.653 1.987-1.987-6.653-6.667zm-8 0c-3.32 0-6-2.68-6-6s2.68-6 6-6 6 2.68 6 6-2.68 6-6 6z"/>
    </symbol>
    <symbol id="icon-filter" viewBox="0 0 32 32">
      <path d="M9.333 8h13.333l-6.68 8.4L9.333 8zm-3.666-.52c2.693 3.453 7.667 9.853 7.667 9.853v8c0 .733.6 1.333 1.333 1.333h2.667c.733 0 1.333-.6 1.333-1.333v-8s4.96-6.4 7.653-9.853c.68-.88.053-2.147-1.053-2.147H6.72A1.33 1.33 0 0 0 5.667 7.48z"/>
    </symbol>
    <symbol id="icon-filled-star" viewBox="0 0 32 32">
      <path d="M16 23.027 24.24 28l-2.187-9.373 7.28-6.307-9.587-.813-3.747-8.84-3.747 8.84-9.587.813 7.28 6.307L7.758 28l8.24-4.973z"/>
    </symbol>
    <symbol id="icon-ok" viewBox="0 0 32 32">
      <path d="m26.36 6.707 1.867 1.867L11.24 25.561l-7.467-7.467 1.867-1.867 5.6 5.6 15.12-15.12zm0-3.774-15.12 15.12-5.6-5.6L0 18.093l11.24 11.24L32 8.573l-5.64-5.64z"/>
    </symbol>
    <symbol id="icon-down-arrow" viewBox="0 0 32 32">
      <path d="M9.88 11.453 16 17.56l6.12-6.107 1.88 1.88-8 8-8-8 1.88-1.88z"/>
    </symbol>
    <symbol id="icon-left-arrow" viewBox="0 0 32 32">
      <path d="M20.547 22.12 14.44 16l6.107-6.12L18.667 8l-8 8 8 8 1.88-1.88z"/>
    </symbol>
    <symbol id="icon-right-arrow" viewBox="0 0 32 32">
      <path d="M11.453 22.12 17.56 16l-6.107-6.12L13.333 8l8 8-8 8-1.88-1.88z"/>
    </symbol>
    <symbol id="icon-up-arrow" viewBox="0 0 32 32">
      <path d="M9.88 20.547 16 14.44l6.12 6.107 1.88-1.88-8-8-8 8 1.88 1.88z"/>
    </symbol>
    <symbol id="icon-catalog" viewBox="0 0 32 32">
      <path d="M0 32V0h32v32H0z"/>
      <path d="M6.027 9.787 9.8 6.014l3.773 3.773L9.8 13.56 6.027 9.787zM6.667 20H12v5.333H6.667V20zM20 6.667h5.333V12H20V6.667zM20 20h5.333v5.333H20V20zM2.253 9.787l7.533 7.547 7.547-7.547L9.786 2.24 2.253 9.787zM4 17.333V28h10.667V17.333H4zM17.333 4v10.667H28V4H17.333zm0 13.333V28H28V17.333H17.333z"/>
    </symbol>
    <symbol id="icon-eye" viewBox="0 0 32 32">
      <path d="M16 8.667a6.67 6.67 0 0 1 6.667 6.667c0 .68-.133 1.333-.32 1.947l4.08 4.08a15.737 15.737 0 0 0 4.24-6.04c-2.307-5.84-8-9.987-14.667-9.987-1.693 0-3.32.267-4.853.76l2.893 2.893c.627-.187 1.28-.32 1.96-.32zM3.613 4.213c-.52.52-.52 1.36 0 1.88L6.24 8.72a15.863 15.863 0 0 0-4.907 6.613c2.307 5.853 8 10 14.667 10 2.027 0 3.96-.4 5.747-1.093l3.627 3.627c.52.52 1.36.52 1.88 0s.52-1.36 0-1.88L5.507 4.214a1.344 1.344 0 0 0-1.893 0zM16 22a6.67 6.67 0 0 1-6.667-6.667c0-1.027.24-2 .653-2.853l2.093 2.093c-.04.24-.08.493-.08.76 0 2.213 1.787 4 4 4 .267 0 .507-.04.76-.093l2.093 2.093a6.414 6.414 0 0 1-2.853.667zm3.96-7.107a3.959 3.959 0 0 0-3.52-3.52l3.52 3.52z"/>
    </symbol>
    <symbol id="icon-question" viewBox="0 0 32 32">
      <path d="M16 2.667C8.64 2.667 2.667 8.64 2.667 16S8.64 29.333 16 29.333 29.333 23.36 29.333 16 23.36 2.667 16 2.667zm1.333 22.666h-2.667v-2.667h2.667v2.667zM20.093 15l-1.2 1.227c-.96.973-1.56 1.773-1.56 3.773h-2.667v-.667c0-1.467.6-2.8 1.56-3.773l1.653-1.68a2.61 2.61 0 0 0 .787-1.88c0-1.467-1.2-2.667-2.667-2.667s-2.667 1.2-2.667 2.667h-2.667c0-2.947 2.387-5.333 5.333-5.333S21.331 9.054 21.331 12c0 1.173-.48 2.24-1.24 3z"/>
    </symbol>
    <symbol id="icon-like" viewBox="0 0 32 32">
      <path d="M22 4c-2.32 0-4.547 1.08-6 2.787C14.547 5.08 12.32 4 10 4c-4.107 0-7.333 3.227-7.333 7.333 0 5.04 4.533 9.147 11.4 15.387L16 28.467l1.933-1.76c6.867-6.227 11.4-10.333 11.4-15.373 0-4.107-3.227-7.333-7.333-7.333zm-5.867 20.733-.133.133-.133-.133c-6.347-5.747-10.533-9.547-10.533-13.4 0-2.667 2-4.667 4.667-4.667 2.053 0 4.053 1.32 4.76 3.147h2.493c.693-1.827 2.693-3.147 4.747-3.147 2.667 0 4.667 2 4.667 4.667 0 3.853-4.187 7.653-10.533 13.4z"/>
    </symbol>
    <symbol id="icon-message" viewBox="0 0 32 32">
      <path d="M24 18.667V8h-6.667v10.667l3.333-2 3.333 2z"/>
      <path d="M26.667 2.667H5.334a2.675 2.675 0 0 0-2.667 2.667v24L8 24.001h18.667c1.467 0 2.667-1.2 2.667-2.667v-16c0-1.467-1.2-2.667-2.667-2.667zm0 18.666H8L5.333 24V5.333h21.333v16z"/>
    </symbol>
    <symbol id="icon-statistics" viewBox="0 0 32 32">
      <path d="M25.333 4H6.666a2.675 2.675 0 0 0-2.667 2.667v18.667c0 1.467 1.2 2.667 2.667 2.667h18.667c1.467 0 2.667-1.2 2.667-2.667V6.667C28 5.2 26.8 4 25.333 4zm0 21.333H6.666V6.666h18.667v18.667zm-16-12H12v9.333H9.333v-9.333zm5.334-4h2.667v13.333h-2.667V9.333zm5.333 8h2.667v5.333H20v-5.333z"/>
    </symbol>
    <symbol id="icon-close" viewBox="0 0 32 32">
      <path d="m25.333 8.547-1.88-1.88L16 14.12 8.547 6.667l-1.88 1.88L14.12 16l-7.453 7.453 1.88 1.88L16 17.88l7.453 7.453 1.88-1.88L17.88 16l7.453-7.453z"/>
    </symbol>
    <symbol id="icon-burger" viewBox="0 0 32 32">
      <path d="M4 20h24v-2.667H4V20zm0 5.333h24v-2.667H4v2.667zm0-10.666h24V12H4v2.667zm0-8v2.667h24V6.667H4z"/>
    </symbol>
    <symbol id="icon-filled-right-arrow" viewBox="0 0 32 32">
      <path fill="#161c2a" style="fill:var(--color1, #161c2a)" d="M32 16c0 8.837-7.163 16-16 16S0 24.837 0 16 7.163 0 16 0s16 7.163 16 16z"/>
      <path fill="#fff" style="fill:var(--color2, #fff)" d="M12 22.12 18.107 16 12 9.88 13.88 8l8 8-8 8L12 22.12z"/>
    </symbol>
    <symbol id="icon-empty-checkbox" viewBox="0 0 32 32">
      <path d="M25.333 6.667v18.667H6.666V6.667h18.667zm0-2.667H6.666a2.675 2.675 0 0 0-2.667 2.667v18.667c0 1.467 1.2 2.667 2.667 2.667h18.667c1.467 0 2.667-1.2 2.667-2.667V6.667C28 5.2 26.8 4 25.333 4z"/>
    </symbol>
    <symbol id="icon-checked-checkbox" viewBox="0 0 32 32">
      <path d="M25.333 4H6.666c-1.48 0-2.667 1.2-2.667 2.667v18.667a2.666 2.666 0 0 0 2.667 2.667h18.667c1.48 0 2.667-1.2 2.667-2.667V6.667A2.666 2.666 0 0 0 25.333 4zm-12 18.667L6.666 16l1.88-1.88 4.787 4.773 10.12-10.12 1.88 1.893-12 12z"/>
    </symbol>
    <symbol id="icon-cabinet" viewBox="0 0 32 32">
      <path d="M16 7.867a2.8 2.8 0 1 1 0 5.6 2.8 2.8 0 1 1 0-5.6zm0 12c3.96 0 8.133 1.947 8.133 2.8v1.467H7.866v-1.467c0-.853 4.173-2.8 8.133-2.8zm0-14.534c-2.947 0-5.333 2.387-5.333 5.333s2.387 5.333 5.333 5.333c2.947 0 5.333-2.387 5.333-5.333S18.946 5.333 16 5.333zm0 12c-3.56 0-10.667 1.787-10.667 5.333v4h21.333v-4c0-3.547-7.107-5.333-10.667-5.333z"/>
    </symbol>
    <symbol id="icon-profile" viewBox="0 0 32 32">
      <path d="M16 2.667C8.64 2.667 2.667 8.64 2.667 16S8.64 29.333 16 29.333 29.333 23.36 29.333 16 23.36 2.667 16 2.667zM9.427 24.373C10 23.173 13.494 22 16 22s6.013 1.173 6.573 2.373c-1.813 1.44-4.093 2.293-6.573 2.293s-4.76-.853-6.573-2.293zM24.48 22.44c-1.907-2.32-6.533-3.107-8.48-3.107s-6.573.787-8.48 3.107A10.6 10.6 0 0 1 5.333 16C5.333 10.12 10.12 5.333 16 5.333S26.667 10.12 26.667 16a10.6 10.6 0 0 1-2.187 6.44zM16 8c-2.587 0-4.667 2.08-4.667 4.667s2.08 4.667 4.667 4.667c2.587 0 4.667-2.08 4.667-4.667S18.587 8 16 8zm0 6.667c-1.107 0-2-.893-2-2s.893-2 2-2 2 .893 2 2-.893 2-2 2z"/>
    </symbol>
    <symbol id="icon-home" viewBox="0 0 32 32">
      <path d="M16 4 2.667 16h4v10.667h8v-8h2.667v8h8V16h4L16.001 4zm6.667 20H20v-8h-8v8H9.333V13.587l6.667-6 6.667 6V24z"/>
    </symbol>
    <symbol id="icon-exit" viewBox="0 0 32 32">
      <path d="M9.333 32H12v-2.667H9.333V32zm5.334 0h2.667v-2.667h-2.667V32zm2.666-29.333h-2.667V16h2.667V2.667zM22.08 5.92l-1.933 1.933c2.307 1.4 3.853 3.92 3.853 6.813 0 4.413-3.587 8-8 8s-8-3.587-8-8c0-2.893 1.547-5.413 3.84-6.827l-1.92-1.92a10.616 10.616 0 0 0-4.587 8.747c0 5.893 4.773 10.667 10.667 10.667s10.667-4.773 10.667-10.667c0-3.627-1.813-6.827-4.587-8.747zM20 32h2.667v-2.667H20V32z"/>
    </symbol>
    <symbol id="icon-cart" viewBox="0 0 32 32">
      <path d="M20.733 17.333c1 0 1.88-.547 2.333-1.373l4.773-8.653c.493-.88-.147-1.973-1.16-1.973H6.946L5.693 2.667h-4.36v2.667H4l4.8 10.12L7 18.707c-.973 1.787.307 3.96 2.333 3.96h16V20h-16l1.467-2.667h9.933zM8.213 8h16.2l-3.68 6.667h-9.36L8.213 8zm1.12 16c-1.467 0-2.653 1.2-2.653 2.667s1.187 2.667 2.653 2.667c1.467 0 2.667-1.2 2.667-2.667S10.8 24 9.333 24zm13.334 0c-1.467 0-2.653 1.2-2.653 2.667s1.187 2.667 2.653 2.667c1.467 0 2.667-1.2 2.667-2.667S24.134 24 22.667 24z"/>
    </symbol>
  </defs>
</svg>
